<svg width="38" height="38" viewBox="0 0 38 38" fill="none" xmlns="http://www.w3.org/2000/svg">
<path d="M0 19C0 8.50659 8.50659 0 19 0C29.4934 0 38 8.50659 38 19C38 29.4934 29.4934 38 19 38C8.50659 38 0 29.4934 0 19Z" fill="url(#paint0_linear_371_2)"/>
<path d="M14.9806 13C15.5741 13 16.122 13.0456 16.6242 13.1826C17.1264 13.2739 17.5372 13.4565 17.9025 13.6848C18.2677 13.9131 18.5416 14.2326 18.7242 14.6435C18.9068 15.0544 18.9982 15.5566 18.9982 16.1044C18.9982 16.7436 18.8612 17.2914 18.5416 17.7023C18.2677 18.1132 17.8112 18.4784 17.2633 18.7524C18.0394 18.9806 18.6329 19.3915 18.9982 19.9394C19.3634 20.4872 19.5917 21.172 19.5917 21.9481C19.5917 22.5873 19.4547 23.1351 19.2264 23.5917C18.9982 24.0482 18.6329 24.4591 18.222 24.733C17.8112 25.0069 17.309 25.2352 16.7611 25.3721C16.2133 25.5091 15.6654 25.6004 15.1176 25.6004H8.99999V13H14.9806ZM14.6154 18.1132C15.1176 18.1132 15.5285 17.9762 15.848 17.748C16.1676 17.5197 16.3046 17.1088 16.3046 16.6066C16.3046 16.3327 16.2589 16.0588 16.1676 15.8762C16.0763 15.6936 15.9394 15.5566 15.7567 15.4196C15.5741 15.3283 15.3915 15.237 15.1632 15.1914C14.935 15.1457 14.7067 15.1457 14.4328 15.1457H11.7849V18.1132H14.6154ZM14.7524 23.5003C15.0263 23.5003 15.3002 23.4547 15.5285 23.409C15.7567 23.3634 15.985 23.2721 16.1676 23.1351C16.3502 22.9982 16.4872 22.8612 16.6242 22.6329C16.7155 22.4047 16.8068 22.1307 16.8068 21.8112C16.8068 21.172 16.6242 20.7155 16.2589 20.3959C15.8937 20.122 15.3915 19.985 14.798 19.985H11.7849V23.5003H14.7524ZM23.5635 23.4547C23.9288 23.8199 24.4766 24.0025 25.2071 24.0025C25.7092 24.0025 26.1658 23.8656 26.531 23.6373C26.8962 23.3634 27.1245 23.0895 27.2158 22.8155H29.4529C29.0876 23.9112 28.5398 24.6873 27.8093 25.1895C27.0789 25.6461 26.2114 25.92 25.1614 25.92C24.4309 25.92 23.7918 25.783 23.1983 25.5548C22.6048 25.3265 22.1483 25.0069 21.7374 24.5504C21.3265 24.1395 21.0069 23.6373 20.8243 23.0438C20.596 22.4503 20.5047 21.8112 20.5047 21.0807C20.5047 20.3959 20.596 19.7567 20.8243 19.1632C21.0526 18.5697 21.3721 18.0676 21.783 17.611C22.1939 17.2001 22.6961 16.8349 23.2439 16.6066C23.8374 16.3784 24.4309 16.2414 25.1614 16.2414C25.9375 16.2414 26.6223 16.3784 27.2158 16.6979C27.8093 17.0175 28.2659 17.3827 28.6311 17.9306C28.9963 18.4328 29.2702 19.0263 29.4529 19.6654C29.5442 20.3046 29.5898 20.9437 29.5442 21.6742H22.9244C22.9244 22.4047 23.1983 23.0895 23.5635 23.4547ZM26.4397 18.661C26.1201 18.3415 25.6179 18.1589 25.0244 18.1589C24.6136 18.1589 24.294 18.2502 24.0201 18.3871C23.7461 18.5241 23.5635 18.7067 23.3809 18.8893C23.1983 19.0719 23.107 19.3002 23.0613 19.5285C23.0157 19.7567 22.97 19.9394 22.97 20.122H27.0789C26.9876 19.4372 26.7593 18.9806 26.4397 18.661ZM22.4222 13.8674H27.5354V15.1001H22.4222V13.8674Z" fill="white"/>
<defs>
<linearGradient id="paint0_linear_371_2" x1="-21.5764" y1="-63.2784" x2="-149.832" y2="-17.7583" gradientUnits="userSpaceOnUse">
<stop stop-color="#8468F5"/>
<stop offset="1" stop-color="#EC74E7"/>
</linearGradient>
</defs>
</svg>
