<svg width="38" height="38" viewBox="0 0 38 38" fill="none" xmlns="http://www.w3.org/2000/svg">
<path d="M0 19C0 8.50659 8.50659 0 19 0C29.4934 0 38 8.50659 38 19C38 29.4934 29.4934 38 19 38C8.50659 38 0 29.4934 0 19Z" fill="url(#paint0_linear_371_6)"/>
<path d="M19.1631 30.3C13.006 30.3 8.00001 25.3028 8.00001 19.1544C8.00001 12.9972 13.006 8 19.1631 8C25.3202 8 30.3262 12.9972 30.3262 19.1456C30.3262 25.2941 25.3202 30.3 19.1631 30.3ZM28.5732 20.6718C28.2505 20.5672 25.6255 19.791 22.6341 20.2619C23.8812 23.6806 24.3871 26.4714 24.483 27.047C26.6284 25.608 28.1546 23.3231 28.5732 20.6718ZM22.887 27.9278C22.7475 27.0906 22.1893 24.1777 20.855 20.7067C20.8376 20.7154 20.8114 20.7242 20.7939 20.7242C15.413 22.5992 13.4856 26.3232 13.3112 26.672C14.9246 27.9278 16.9566 28.6779 19.1631 28.6779C20.48 28.6866 21.7446 28.4162 22.887 27.9278ZM12.0815 25.5295C12.2995 25.1632 14.9159 20.8375 19.8346 19.2416C19.9567 19.198 20.0875 19.1631 20.2096 19.1282C19.9742 18.5875 19.7125 18.0468 19.4334 17.5148C14.6717 18.9363 10.0495 18.8753 9.63086 18.8666C9.63086 18.9625 9.62214 19.0584 9.62214 19.1544C9.63086 21.605 10.5553 23.8376 12.0815 25.5295ZM9.83145 17.2095C10.2588 17.2183 14.1833 17.2357 18.6485 16.0496C17.07 13.2414 15.3607 10.8867 15.1165 10.5466C12.4391 11.8024 10.4507 14.2618 9.83145 17.2095ZM16.9305 9.90121C17.1921 10.2501 18.9276 12.6048 20.4887 15.474C23.8812 14.2007 25.3115 12.2821 25.4859 12.0379C23.8028 10.5466 21.5876 9.63958 19.1631 9.63958C18.3956 9.63958 17.6456 9.73551 16.9305 9.90121ZM26.5412 13.1368C26.3406 13.4071 24.7446 15.4566 21.2213 16.8956C21.4393 17.3491 21.6573 17.8113 21.8579 18.2735C21.9277 18.4392 21.9975 18.6049 22.0672 18.7619C25.2417 18.3607 28.3901 19.0061 28.704 19.0672C28.6779 16.8258 27.8755 14.7589 26.5412 13.1368Z" fill="white"/>
<defs>
<linearGradient id="paint0_linear_371_6" x1="-21.5764" y1="-63.2784" x2="-149.832" y2="-17.7583" gradientUnits="userSpaceOnUse">
<stop stop-color="#8468F5"/>
<stop offset="1" stop-color="#EC74E7"/>
</linearGradient>
</defs>
</svg>
