<svg width="38" height="38" viewBox="0 0 38 38" fill="none" xmlns="http://www.w3.org/2000/svg">
<path d="M0 19C0 8.50659 8.50659 0 19 0C29.4934 0 38 8.50659 38 19C38 29.4934 29.4934 38 19 38C8.50659 38 0 29.4934 0 19Z" fill="url(#paint0_linear_371_3)"/>
<path d="M20.7416 28.9999V19.8769H23.8038L24.2623 16.3216H20.7416V14.0516C20.7416 13.0222 21.0274 12.3207 22.5037 12.3207L24.3864 12.3198V9.13993C24.0606 9.09676 22.9431 8.99999 21.6429 8.99999C18.9285 8.99999 17.0701 10.6568 17.0701 13.6996V16.3217H14V19.877H17.07V29L20.7416 28.9999Z" fill="white"/>
<defs>
<linearGradient id="paint0_linear_371_3" x1="-21.5764" y1="-63.2784" x2="-149.832" y2="-17.7583" gradientUnits="userSpaceOnUse">
<stop stop-color="#8468F5"/>
<stop offset="1" stop-color="#EC74E7"/>
</linearGradient>
</defs>
</svg>
