<svg width="38" height="38" viewBox="0 0 38 38" fill="none" xmlns="http://www.w3.org/2000/svg">
<path d="M0 19C0 8.50659 8.50659 0 19 0C29.4934 0 38 8.50659 38 19C38 29.4934 29.4934 38 19 38C8.50659 38 0 29.4934 0 19Z" fill="url(#paint0_linear_371_5)"/>
<path d="M15.6672 19C15.6672 17.1591 17.1591 15.6664 19 15.6664C20.8409 15.6664 22.3336 17.1591 22.3336 19C22.3336 20.8409 20.8409 22.3336 19 22.3336C17.1591 22.3336 15.6672 20.8409 15.6672 19ZM13.8651 19C13.8651 21.836 16.164 24.1349 19 24.1349C21.836 24.1349 24.1349 21.836 24.1349 19C24.1349 16.164 21.836 13.8651 19 13.8651C16.164 13.8651 13.8651 16.164 13.8651 19ZM23.1382 13.6615C23.1381 13.8989 23.2083 14.1309 23.3401 14.3283C23.4719 14.5257 23.6593 14.6796 23.8785 14.7705C24.0977 14.8614 24.339 14.8852 24.5718 14.839C24.8046 14.7928 25.0185 14.6786 25.1863 14.5109C25.3542 14.3431 25.4686 14.1293 25.515 13.8966C25.5614 13.6638 25.5377 13.4225 25.447 13.2032C25.3563 12.9839 25.2025 12.7964 25.0052 12.6645C24.808 12.5326 24.576 12.4621 24.3386 12.462C24.0205 12.4621 23.715 12.5886 23.49 12.8135C23.265 13.0384 23.1384 13.3434 23.1382 13.6615ZM14.96 27.1398C13.985 27.0954 13.4551 26.933 13.103 26.7958C12.6361 26.614 12.303 26.3975 11.9527 26.0478C11.6025 25.698 11.3857 25.3652 11.2047 24.8983C11.0674 24.5463 10.905 24.0162 10.8607 23.0413C10.8122 21.9872 10.8026 21.6706 10.8026 19.0001C10.8026 16.3296 10.813 16.0138 10.8607 14.9589C10.9051 13.9839 11.0687 13.4549 11.2047 13.1018C11.3865 12.635 11.603 12.3018 11.9527 11.9516C12.3025 11.6014 12.6353 11.3846 13.103 11.2036C13.455 11.0663 13.985 10.9039 14.96 10.8596C16.0141 10.8111 16.3307 10.8014 19 10.8014C21.6693 10.8014 21.9862 10.8119 23.0412 10.8596C24.0162 10.904 24.5452 11.0676 24.8982 11.2036C25.3651 11.3846 25.6982 11.6018 26.0485 11.9516C26.3987 12.3014 26.6147 12.635 26.7965 13.1018C26.9338 13.4538 27.0962 13.9839 27.1405 14.9589C27.189 16.0138 27.1986 16.3296 27.1986 19.0001C27.1986 21.6706 27.189 21.9863 27.1405 23.0413C27.0961 24.0162 26.9329 24.5462 26.7965 24.8983C26.6147 25.3652 26.3982 25.6983 26.0485 26.0478C25.6987 26.3972 25.3651 26.614 24.8982 26.7958C24.5462 26.933 24.0162 27.0954 23.0412 27.1398C21.9871 27.1882 21.6705 27.1979 19 27.1979C16.3295 27.1979 16.0138 27.1882 14.96 27.1398ZM14.8772 9.06056C13.8126 9.10904 13.0852 9.27784 12.4499 9.52504C11.792 9.78032 11.235 10.1228 10.6785 10.6785C10.1219 11.2342 9.78031 11.792 9.52503 12.4499C9.27783 13.0856 9.10903 13.8126 9.06055 14.8772C9.01127 15.9434 8.99999 16.2843 8.99999 19C8.99999 21.7157 9.01127 22.0566 9.06055 23.1228C9.10903 24.1874 9.27783 24.9144 9.52503 25.5501C9.78031 26.2076 10.122 26.7661 10.6785 27.3215C11.235 27.877 11.792 28.219 12.4499 28.475C13.0864 28.7222 13.8126 28.891 14.8772 28.9394C15.944 28.9879 16.2843 29 19 29C21.7157 29 22.0566 28.9887 23.1228 28.9394C24.1874 28.891 24.9144 28.7222 25.5501 28.475C26.2076 28.219 26.765 27.8772 27.3215 27.3215C27.8781 26.7658 28.219 26.2076 28.475 25.5501C28.7222 24.9144 28.8918 24.1874 28.9394 23.1228C28.9879 22.0558 28.9992 21.7157 28.9992 19C28.9992 16.2843 28.9879 15.9434 28.9394 14.8772C28.891 13.8126 28.7222 13.0852 28.475 12.4499C28.219 11.7924 27.8772 11.235 27.3215 10.6785C26.7658 10.1219 26.2076 9.78032 25.5509 9.52504C24.9144 9.27784 24.1874 9.10824 23.1236 9.06056C22.0574 9.01208 21.7165 9 19.0008 9C16.2851 9 15.944 9.01128 14.8772 9.06056Z" fill="white"/>
<defs>
<linearGradient id="paint0_linear_371_5" x1="-21.5764" y1="-63.2784" x2="-149.832" y2="-17.7583" gradientUnits="userSpaceOnUse">
<stop stop-color="#8468F5"/>
<stop offset="1" stop-color="#EC74E7"/>
</linearGradient>
</defs>
</svg>
