<svg width="38" height="38" viewBox="0 0 38 38" fill="none" xmlns="http://www.w3.org/2000/svg">
<path d="M0 19C0 8.50659 8.50659 0 19 0C29.4934 0 38 8.50659 38 19C38 29.4934 29.4934 38 19 38C8.50659 38 0 29.4934 0 19Z" fill="url(#paint0_linear_371_4)"/>
<path d="M27.8068 15.2432C27.8068 15.4348 27.8068 15.6264 27.8068 15.7907C27.8068 21.4573 23.4815 28 15.5974 28C13.161 28 10.9163 27.2883 9.00001 26.0837C9.32851 26.1111 9.68439 26.1385 10.0129 26.1385C12.0113 26.1385 13.8728 25.4541 15.3511 24.3044C13.4622 24.277 11.8744 23.0177 11.3543 21.3205C11.628 21.3752 11.8744 21.4026 12.1755 21.4026C12.5588 21.4026 12.942 21.3478 13.2979 21.2383C11.3269 20.8551 9.84864 19.1304 9.84864 17.0499C9.84864 17.0226 9.84864 17.0226 9.84864 16.9952C10.4235 17.3237 11.0805 17.5153 11.7923 17.5427C10.6425 16.7762 9.87602 15.4622 9.87602 13.9565C9.87602 13.1627 10.095 12.4235 10.4509 11.7939C12.5588 14.3945 15.7343 16.0918 19.2931 16.2834C19.211 15.9823 19.1836 15.6264 19.1836 15.2979C19.1836 12.9163 21.0998 11 23.4815 11C24.7134 11 25.8358 11.5201 26.6023 12.3414C27.5878 12.1498 28.4912 11.7939 29.3398 11.3011C29.0113 12.314 28.3269 13.1353 27.4509 13.6828C28.3269 13.5733 29.1482 13.3543 29.9147 12.9984C29.3672 13.8744 28.6554 14.6409 27.8068 15.2432Z" fill="white"/>
<defs>
<linearGradient id="paint0_linear_371_4" x1="-21.5764" y1="-63.2784" x2="-149.832" y2="-17.7583" gradientUnits="userSpaceOnUse">
<stop stop-color="#8468F5"/>
<stop offset="1" stop-color="#EC74E7"/>
</linearGradient>
</defs>
</svg>
